<svg xmlns="http://www.w3.org/2000/svg" version="1.1" xmlns:xlink="http://www.w3.org/1999/xlink" xmlns:svgjs="http://svgjs.dev/svgjs" width="1000" height="121" viewBox="0 0 1000 121"><g transform="matrix(1,0,0,1,-0.6060604893962704,-0.4226587216842077)"><svg viewBox="0 0 396 48" data-background-color="#ffffff" preserveAspectRatio="xMidYMid meet" height="121" width="1000" xmlns="http://www.w3.org/2000/svg" xmlns:xlink="http://www.w3.org/1999/xlink"><g id="tight-bounds" transform="matrix(1,0,0,1,0.24000004619909987,0.16766626975902454)"><svg viewBox="0 0 395.52 47.664667460481944" height="47.664667460481944" width="395.52"><g><svg viewBox="0 0 460.4945858688493 55.49484552687866" height="47.664667460481944" width="395.52"><g transform="matrix(1,0,0,1,0,7.669692833309572)"><svg viewBox="0 0 395.52 40.15545986025952" height="40.15545986025952" width="395.52"><g id="textblocktransform"><svg viewBox="0 0 395.52 40.15545986025952" height="40.15545986025952" width="395.52" id="textblock"><g><svg viewBox="0 0 395.52 40.15545986025952" height="40.15545986025952" width="395.52"><g transform="matrix(1,0,0,1,0,0)"><svg width="395.52" viewBox="2.1500000953674316 -35 350.6300048828125 35.599998474121094" height="40.15545986025952" data-palette-color="#ed1703"><path d="M18.15-35Q24.75-35 29-32.33 33.25-29.65 33.35-24.4L33.35-24.4 33.35-23.8 23-23.8 23-24Q23-25.5 21.9-26.5 20.8-27.5 18.55-27.5L18.55-27.5Q16.35-27.5 15.18-26.85 14-26.2 14-25.25L14-25.25Q14-23.9 15.6-23.25 17.2-22.6 20.75-21.9L20.75-21.9Q24.9-21.05 27.58-20.13 30.25-19.2 32.25-17.1 34.25-15 34.3-11.4L34.3-11.4Q34.3-5.3 30.18-2.35 26.05 0.6 19.15 0.6L19.15 0.6Q11.1 0.6 6.63-2.1 2.15-4.8 2.15-11.65L2.15-11.65 12.6-11.65Q12.6-9.05 13.95-8.18 15.3-7.3 18.15-7.3L18.15-7.3Q20.25-7.3 21.63-7.75 23-8.2 23-9.6L23-9.6Q23-10.85 21.48-11.48 19.95-12.1 16.5-12.8L16.5-12.8Q12.3-13.7 9.55-14.68 6.8-15.65 4.75-17.9 2.7-20.15 2.7-24L2.7-24Q2.7-29.65 7.08-32.33 11.45-35 18.15-35L18.15-35ZM56.2-35Q63.85-35 68.3-31.18 72.75-27.35 72.75-20.25L72.75-20.25 62.2-20.25Q62.2-23.25 60.62-25 59.05-26.75 56.15-26.75L56.15-26.75Q52.8-26.75 51.22-24.65 49.65-22.55 49.65-18.8L49.65-18.8 49.65-15.6Q49.65-11.9 51.22-9.78 52.8-7.65 56.05-7.65L56.05-7.65Q59.25-7.65 60.9-9.3 62.55-10.95 62.55-13.95L62.55-13.95 72.75-13.95Q72.75-6.9 68.42-3.15 64.1 0.6 56.2 0.6L56.2 0.6Q47.4 0.6 42.87-3.9 38.35-8.4 38.35-17.2L38.35-17.2Q38.35-26 42.87-30.5 47.4-35 56.2-35L56.2-35ZM111.34-23.85Q111.34-20.7 109.65-18.15 107.95-15.6 104.7-14.4L104.7-14.4 112.34 0 99.95 0 93.84-12.55 89.75-12.55 89.75 0 78.7 0 78.7-34.4 99.75-34.4Q103.45-34.4 106.07-32.98 108.7-31.55 110.02-29.13 111.34-26.7 111.34-23.85L111.34-23.85ZM100.09-23.4Q100.09-24.75 99.2-25.65 98.3-26.55 97-26.55L97-26.55 89.75-26.55 89.75-20.2 97-20.2Q98.3-20.2 99.2-21.13 100.09-22.05 100.09-23.4L100.09-23.4ZM117.59 0L117.59-34.4 147.34-34.4 147.34-26.15 128.64-26.15 128.64-21.4 144.64-21.4 144.64-13.5 128.64-13.5 128.64-8.25 147.69-8.25 147.69 0 117.59 0ZM153.69 0L153.69-34.4 183.44-34.4 183.44-26.15 164.74-26.15 164.74-21.4 180.74-21.4 180.74-13.5 164.74-13.5 164.74-8.25 183.79-8.25 183.79 0 153.69 0ZM224.04 0L214.39 0 199.94-16.7 199.94 0 189.79 0 189.79-34.4 199.44-34.4 213.89-17.45 213.89-34.4 224.04-34.4 224.04 0ZM231.44 0L231.44-34.4 259.24-34.4 259.24-26.15 242.49-26.15 242.49-20.25 256.88-20.25 256.88-12.35 242.49-12.35 242.49 0 231.44 0ZM264.78 0L264.78-34.4 275.83-34.4 275.83-8.8 293.48-8.8 293.48 0 264.78 0ZM309.68 0L298.63 0 298.63-34.4 309.68-34.4 309.68 0ZM340.48-18.15L352.78 0 339.38 0 333.03-10.7 332.83-10.7 326.48 0 314.08 0 326.38-18.2 315.28-34.4 328.63-34.4 333.83-25.6 334.03-25.6 339.28-34.4 351.63-34.4 340.48-18.15Z" opacity="1" transform="matrix(1,0,0,1,0,0)" fill="#ed1703" class="undefined-text-0" data-fill-palette-color="primary" id="text-0"></path></svg></g></svg></g></svg></g></svg></g><g transform="matrix(1,0,0,1,404.9997403419706,0)"><svg viewBox="0 0 55.49484552687866 55.49484552687866" height="55.49484552687866" width="55.49484552687866"><g data-palette-color="#ff908b"><rect width="15.168591110680168" height="55.49484552687866" fill="#ff908b" stroke="transparent" data-fill-palette-color="accent" x="0" fill-opacity="1"></rect><rect width="15.168591110680168" height="55.49484552687866" fill="#ff908b" stroke="transparent" data-fill-palette-color="accent" x="18.498281842292887" fill-opacity="0.75"></rect><rect width="15.168591110680168" height="55.49484552687866" fill="#ff908b" stroke="transparent" data-fill-palette-color="accent" x="36.99656368458577" fill-opacity="0.5"></rect></g></svg></g></svg></g><defs></defs></svg><rect width="395.52" height="47.664667460481944" fill="none" stroke="none" visibility="hidden"></rect></g></svg></g></svg>